<?xml version="1.0" encoding="UTF-8" standalone="no"?>
<!-- Created with Inkscape (http://www.inkscape.org/) -->

<svg
   xmlns:dc="http://purl.org/dc/elements/1.1/"
   xmlns:cc="http://creativecommons.org/ns#"
   xmlns:rdf="http://www.w3.org/1999/02/22-rdf-syntax-ns#"
   xmlns:svg="http://www.w3.org/2000/svg"
   xmlns="http://www.w3.org/2000/svg"
   xmlns:sodipodi="http://sodipodi.sourceforge.net/DTD/sodipodi-0.dtd"
   xmlns:inkscape="http://www.inkscape.org/namespaces/inkscape"
   width="86.179054mm"
   height="101.8493mm"
   viewBox="0 0 305.35885 360.88336"
   id="svg2"
   version="1.1"
   inkscape:version="0.91 r13725"
   sodipodi:docname="dgeti.svg">
  <defs
     id="defs4" />
  <sodipodi:namedview
     id="base"
     pagecolor="#ffffff"
     bordercolor="#666666"
     borderopacity="1.0"
     inkscape:pageopacity="0.0"
     inkscape:pageshadow="2"
     inkscape:zoom="0.98994949"
     inkscape:cx="162.68514"
     inkscape:cy="152.74084"
     inkscape:document-units="px"
     inkscape:current-layer="layer1"
     showgrid="false"
     fit-margin-top="0"
     fit-margin-left="0"
     fit-margin-right="0"
     fit-margin-bottom="0"
     inkscape:window-width="1366"
     inkscape:window-height="692"
     inkscape:window-x="0"
     inkscape:window-y="0"
     inkscape:window-maximized="1" />
  <metadata
     id="metadata7">
    <rdf:RDF>
      <cc:Work
         rdf:about="">
        <dc:format>image/svg+xml</dc:format>
        <dc:type
           rdf:resource="http://purl.org/dc/dcmitype/StillImage" />
        <dc:title></dc:title>
      </cc:Work>
    </rdf:RDF>
  </metadata>
  <g
     inkscape:label="Layer 1"
     inkscape:groupmode="layer"
     id="layer1"
     transform="translate(-213.10241,-149.03657)">
    <path
       inkscape:connector-curvature="0"
       id="path3431"
       d="m 317.65428,509.83261 c -7.33854,-0.75582 -12.35737,-2.5445 -17.06136,-6.08058 -3.53647,-2.65844 -6.28993,-5.99884 -8.31457,-10.08693 -2.81255,-5.67902 -4.01978,-11.39083 -4.01367,-18.99 0.005,-5.61539 0.67372,-10.6083 2.21672,-16.53867 1.0282,-3.95176 1.81478,-5.79672 3.65432,-8.57133 5.88796,-8.88095 17.68004,-12.3624 38.09856,-11.24806 5.08254,0.27738 15.28667,1.20733 15.63934,1.4253 0.10103,0.0624 -0.43006,3.08484 -1.2955,7.37265 l -1.46671,7.26685 -1.53357,-0.11698 c -0.84346,-0.0643 -3.07256,-0.24995 -4.95356,-0.4125 -4.47863,-0.38702 -15.43205,-0.43731 -17.91,-0.0822 -7.69531,1.10272 -10.64413,4.33496 -12.51745,13.72056 -0.9447,4.73311 -0.78588,10.62673 0.39734,14.74441 1.04331,3.63074 2.26237,5.79848 4.56011,8.10877 1.42261,1.43037 1.96714,1.84379 3.24,2.45991 2.75629,1.33416 6.81508,1.92787 11.76181,1.72046 l 2.45819,-0.10307 0,-10.86303 0,-10.86304 9.63,0 9.63,0 0,17.08724 0,17.08724 -0.945,0.18844 c -4.73644,0.94453 -14.9187,2.3306 -19.92598,2.71245 -2.23449,0.17041 -9.89076,0.21231 -11.34902,0.0621 z m 47.7,-35.71861 0,-35.12109 23.74863,0.0697 c 13.06175,0.0384 23.7873,0.10859 23.83455,0.15611 0.0887,0.0892 -1.45526,15.21035 -1.59403,15.61137 -0.0614,0.17732 -2.94051,0.225 -13.5835,0.225 l -13.50565,0 0,4.86 0,4.86 12.65999,0 c 6.96302,0 12.69776,0.0377 12.7439,0.0839 0.0461,0.0462 -0.18029,3.4279 -0.50319,7.515 -0.32289,4.08712 -0.59013,7.61337 -0.59388,7.83612 l -0.007,0.405 -12.15,0 -12.15,0 0,6.39 0,6.39 14.49,0 14.49,0 0.0113,0.855 c 0.006,0.47025 0.18848,4.00055 0.405,7.8451 0.21654,3.84457 0.35995,7.02382 0.31869,7.065 -0.0412,0.0412 -10.99649,0.0749 -24.34499,0.0749 l -24.27002,0 0,-35.1211 z m -149.21975,-0.009 2.5e-4,-34.97963 16.15475,0.008 c 16.32773,0.008 18.16882,0.066 23.08475,0.72266 11.41954,1.52543 17.71415,6.06058 19.87895,14.3224 1.19198,4.54909 1.90645,10.22512 2.02834,16.11387 0.14205,6.86261 -0.37274,10.94881 -2.02142,16.0453 -2.17617,6.72708 -6.81787,13.59291 -11.19874,16.56475 -4.36755,2.96282 -10.04797,4.74712 -18.23024,5.72639 -1.96289,0.23494 -5.03381,0.30625 -16.06189,0.37305 l -13.635,0.0826 2.5e-4,-34.97965 z m 29.69975,18.4932 c 1.45616,-0.35487 2.3374,-0.72486 3.58099,-1.50354 5.40448,-3.38401 8.44517,-11.7838 7.7604,-21.43784 -0.23667,-3.33658 -0.60798,-5.64728 -1.18649,-7.38361 -1.19687,-3.59232 -3.83345,-6.25574 -6.93927,-7.00994 -1.50214,-0.36475 -4.8461,-0.5647 -9.47063,-0.56626 l -4.545,-0.002 0,19.07102 0,19.07102 1.035,0.0764 c 2.34195,0.17277 8.58945,-0.0292 9.765,-0.31565 z m 197.28,-10.18274 0,-26.64 -10.71,0 c -5.8905,0 -10.71,-0.0468 -10.71,-0.10401 0,-0.21526 2.16857,-15.48756 2.26636,-15.96099 l 0.10224,-0.495 29.68571,0 c 28.59813,0 29.68569,0.0121 29.68569,0.32794 0,0.18036 -0.486,3.83306 -1.08,8.11712 -0.594,4.28407 -1.08,7.86249 -1.08,7.95207 0,0.0951 -3.96911,0.16287 -9.54,0.16287 l -9.54,0 0,26.64 0,26.64 -9.54,0 -9.54,0 0,-26.64 z m 48.96,-8.27732 0,-34.91734 11.26507,-0.0477 c 6.19578,-0.0262 11.29878,-0.0139 11.34,0.0273 0.0412,0.0412 0.0749,15.77549 0.0749,34.96501 l 0,34.88999 -11.34,0 -11.34,0 0,-34.91732 z m -108.45693,-54.49496 -1.08694,-0.0629 -1.02992,-5.07739 c -0.56645,-2.79257 -1.02908,-5.13815 -1.02806,-5.2124 0.001,-0.0743 2.76529,-0.135 6.14283,-0.135 l 6.141,0 -0.0777,0.405 c -0.0427,0.22275 -0.51599,2.61225 -1.05175,5.31 l -0.97411,4.905 -2.97423,-0.0347 c -1.63583,-0.0191 -3.46335,-0.063 -4.06116,-0.0976 z m -15.98716,-2.0351 c -1.96575,-0.37995 -3.59886,-0.71595 -3.62914,-0.74671 -0.0303,-0.0308 -0.11439,-2.47014 -0.18692,-5.42087 l -0.13187,-5.36495 0.43101,0.1057 c 0.23706,0.0581 2.92699,0.58084 5.97763,1.16157 3.05064,0.58074 5.57851,1.08776 5.61749,1.12675 0.039,0.039 -0.79444,2.27477 -1.85205,4.96838 -1.65557,4.21655 -1.97363,4.89497 -2.2875,4.87922 -0.20051,-0.0101 -1.9729,-0.32915 -3.93865,-0.70909 z m -17.84591,-5.2587 c -1.98,-0.79857 -3.62166,-1.46731 -3.64812,-1.48606 -0.1065,-0.0755 1.71237,-10.61581 1.8273,-10.58917 0.50313,0.11655 11.27082,4.49554 11.27082,4.58359 0,0.18659 -5.58198,8.88554 -5.72103,8.91565 -0.0709,0.0153 -1.74897,-0.62544 -3.72897,-1.42401 z m -15.48752,-7.66417 c -1.19213,-0.75886 -2.70886,-1.72398 -3.37049,-2.1447 l -1.20298,-0.76493 0.54952,-1.48507 c 0.30223,-0.81679 1.12002,-3.06455 1.8173,-4.99505 0.69729,-1.9305 1.29023,-3.53551 1.31764,-3.56667 0.1011,-0.11491 10.25653,6.38388 10.25653,6.56349 0,0.17539 -6.87841,7.6793 -7.09753,7.74293 -0.0564,0.0164 -1.07785,-0.59112 -2.26999,-1.35 z m 48.78752,-0.33516 c -6.56984,-0.34878 -14.53259,-1.94439 -21.87,-4.38241 -22.81774,-7.58165 -42.70163,-24.8416 -53.17998,-46.16218 -0.92444,-1.881 -1.7869,-3.72375 -1.91657,-4.095 l -0.23577,-0.675 -28.94384,0 -28.94384,0 0,-11.88 0,-11.88001 25.94003,0 25.94003,0 -0.10562,-0.585 c -1.04065,-5.76368 -1.31851,-17.40549 -0.56817,-23.805 2.2329,-19.0441 9.46367,-35.44761 22.04347,-50.00722 2.0364,-2.35689 7.26465,-7.46152 9.91581,-9.68136 11.3384,-9.49377 24.69346,-16.09312 39.08315,-19.31278 6.96424,-1.55823 12.07093,-2.09187 21.46504,-2.24304 l 7.18373,-0.1156 -1.39883,-2.07 c -4.95115,-7.32666 -10.57693,-13.1388 -17.19864,-17.76835 -8.57864,-5.99774 -18.98888,-9.97152 -30.53108,-11.65428 -6.0703,-0.885 -5.45369,-0.8685 -35.25314,-0.94351 -24.91812,-0.0627 -28.29269,-0.0386 -30.01765,0.21434 -6.86042,1.00609 -10.53332,3.73673 -12.36005,9.18914 -1.13391,3.3845 -1.14454,3.52762 -1.22657,16.52192 -0.0501,7.94013 -0.0107,12.27508 0.1195,13.14 0.40311,2.67768 1.38782,4.56796 3.03342,5.82311 1.58673,1.21024 1.6088,1.21256 12.11151,1.27561 l 9.46593,0.0568 -1.2241,5.4376 c -0.67326,2.99067 -1.85879,8.23209 -2.63452,11.64759 l -1.41042,6.21 -38.73641,0.0454 c -28.32491,0.0332 -38.73642,-0.008 -38.73642,-0.15468 0,-0.17386 1.64189,-7.24347 3.23536,-13.93073 0.28308,-1.188 0.8511,-3.618 1.26227,-5.4 0.41117,-1.782 0.78642,-3.37718 0.83388,-3.54485 0.0796,-0.28121 0.93346,-0.31007 11.0124,-0.37216 9.79834,-0.0604 11.03756,-0.10018 12.00609,-0.38573 3.32792,-0.98116 5.20739,-2.98842 6.25216,-6.67726 l 0.40784,-1.44 0.0393,-27.12751 c 0.0341,-23.53182 0.0756,-27.28379 0.31278,-28.30661 0.59893,-2.58253 1.77237,-3.95858 3.96373,-4.6481 l 1.26416,-0.39778 47.88,0 c 52.79059,0 49.0205,-0.0739 55.89,1.09531 11.8533,2.01744 24.31817,7.0392 34.72948,13.99155 12.08731,8.07155 22.02313,18.581 28.9369,30.60756 1.43726,2.50011 3.22943,6.02914 4.19502,8.26058 l 0.60365,1.395 28.94748,0 28.94747,0 0,11.88 0,11.88 -25.92,0 c -20.61713,0 -25.91957,0.046 -25.91788,0.225 0.002,0.12375 0.16038,1.49363 0.35381,3.04418 1.40083,11.22939 0.65999,23.20835 -2.09102,33.81082 -3.8095,14.68187 -10.92867,27.737 -21.25379,38.97522 -13.97536,15.21125 -33.11537,25.37155 -53.70108,28.50671 -4.79621,0.73046 -7.84522,0.94059 -15.15504,1.04451 -3.93525,0.0559 -7.155,0.15816 -7.155,0.22718 0,0.069 0.65908,1.09092 1.46461,2.27093 11.64843,17.06341 27.97843,26.73891 49.62756,29.4043 5.76356,0.70959 8.24707,0.75699 36.20783,0.69091 l 26.91,-0.0636 1.76749,-0.40433 c 7.77076,-1.77768 11.05632,-6.00986 11.83266,-15.24184 0.12499,-1.48634 0.17154,-6.18151 0.12757,-12.87 -0.0662,-10.07423 -0.0858,-10.58975 -0.45238,-11.91044 -0.21074,-0.75924 -0.54308,-1.69074 -0.73854,-2.07 -0.91706,-1.77945 -2.72187,-3.08601 -4.78487,-3.4639 -0.67593,-0.12384 -4.33414,-0.19566 -9.96451,-0.19566 l -8.89644,0 0.0992,-0.405 c 0.0546,-0.22275 0.47519,-2.0655 0.93471,-4.095 0.45954,-2.02951 1.38724,-6.12001 2.06159,-9.09001 0.67434,-2.97 1.45057,-6.39225 1.72496,-7.605 l 0.49889,-2.205 38.76327,0 38.76327,0 -0.0926,0.405 c -0.28321,1.23849 -1.56003,6.69568 -2.72691,11.655 -0.73375,3.1185 -1.62879,6.94072 -1.98898,8.49379 l -0.65488,2.82379 -10.90674,0.0662 c -9.67014,0.0587 -11.02752,0.10141 -11.97207,0.37681 -3.28925,0.95904 -5.27875,3.05527 -6.34878,6.6894 -0.29587,1.00481 -0.32517,3.00373 -0.42091,28.71 -0.0777,20.86245 -0.15648,27.81919 -0.32154,28.40245 -0.80028,2.82778 -2.38231,4.24519 -5.25344,4.70675 -0.79555,0.12789 -16.0042,0.17762 -47.52,0.15541 -25.4925,-0.018 -46.836,-0.0585 -47.43,-0.09 z m -43.37693,-79.07808 c 15.79666,-1.00747 27.32765,-4.49737 38.75168,-11.72834 2.5666,-1.62456 6.00637,-4.14679 7.29069,-5.34594 1.92277,-1.79526 6.55222,-7.22788 9.06889,-10.64224 10.42785,-14.1475 15.22231,-28.58434 14.4487,-43.50718 -0.16081,-3.10182 -0.64098,-7.13051 -1.13265,-9.50282 l -0.22383,-1.08 -1.88326,-0.11294 c -3.05826,-0.18341 -10.82634,-0.16768 -14.12329,0.0286 -15.22644,0.90646 -27.29562,4.5026 -38.34,11.42379 -4.33841,2.71876 -7.22622,4.96646 -9.39063,7.30914 -10.23953,11.08283 -17.1939,23.06475 -20.10513,34.63979 -1.38198,5.49472 -1.82217,9.20139 -1.80529,15.20163 0.0134,4.76255 0.22568,7.17951 0.99144,11.28849 l 0.37617,2.01849 1.64672,0.0592 c 4.03103,0.1448 11.80022,0.11809 14.42979,-0.0496 z m 152.22914,51.43849 0.0478,-27.765 0.56961,-1.20233 c 0.96631,-2.03965 2.48483,-3.42454 4.52446,-4.12629 0.91789,-0.31579 1.61097,-0.34138 9.24412,-0.34138 l 8.25181,0 0,30.6 0,30.6 -11.34279,0 -11.34277,0 0.0478,-27.765 z m -174.06837,15.84 c -1.58872,-1.41075 -2.89427,-2.64271 -2.90121,-2.7377 -0.0141,-0.19288 5.00578,-9.06271 5.19535,-9.17987 0.19131,-0.11824 9.22834,8.03983 9.06713,8.18523 -0.62437,0.56317 -8.19971,6.29734 -8.31933,6.29734 -0.0843,0 -1.45322,-1.15425 -3.04194,-2.565 z m -12.9167,-13.84287 c -1.27993,-1.59932 -2.38518,-3.00479 -2.45613,-3.12327 -0.0786,-0.13129 1.17658,-1.82505 3.21414,-4.33713 1.83873,-2.26696 3.36217,-4.14263 3.38543,-4.16817 0.0458,-0.0503 7.53372,9.29215 7.62445,9.51282 0.0303,0.0736 -0.61773,0.495 -1.44,0.93643 -5.58537,2.99849 -7.66941,4.08719 -7.82394,4.08719 -0.0972,0 -1.22402,-1.30853 -2.50395,-2.90787 z m -9.76203,-14.95713 c -2.49295,-4.74158 -2.45104,-4.64051 -2.07525,-5.00449 0.68449,-0.66299 7.71556,-6.46888 7.83492,-6.46969 0.0686,0 0.74957,1.19393 1.5132,2.65418 0.76363,1.46025 2.0237,3.86596 2.80016,5.34605 0.77647,1.48009 1.35103,2.74523 1.27681,2.81147 -0.0742,0.0662 -1.14745,0.42399 -2.38495,0.79505 -1.2375,0.37105 -3.4245,1.02934 -4.86,1.46287 -1.4355,0.43353 -2.66421,0.78853 -2.73047,0.78889 -0.0663,0 -0.68475,-1.07258 -1.37442,-2.38433 z m 57.1866,-5.04206 c -1.62445,-4.17367 -1.86541,-4.92179 -1.62,-5.02965 0.15856,-0.0697 2.71829,-0.50131 5.68829,-0.95916 2.97,-0.45785 5.58717,-0.8766 5.81594,-0.93055 l 0.41595,-0.0981 -0.10588,3.39725 c -0.0582,1.86851 -0.15122,4.29367 -0.20664,5.38927 l -0.10076,1.99203 -3.62931,0.57411 c -1.99611,0.31575 -3.7913,0.57267 -3.9893,0.57092 -0.3038,-0.003 -0.6579,-0.76856 -2.26829,-4.90612 z m 17.57274,-3.6504 c -1.46274,-2.5286 -2.62914,-4.61932 -2.59199,-4.64605 0.20916,-0.15044 11.54942,-3.72461 11.6137,-3.66033 0.0895,0.0895 1.32384,9.5394 1.32384,10.13482 0,0.35761 -0.36443,0.51462 -3.67391,1.583 -2.02065,0.65232 -3.75,1.18602 -3.843,1.18602 -0.093,0 -1.36589,-2.06885 -2.82864,-4.59746 z m 18.50941,-4.80726 c -1.16531,-1.31191 -2.75693,-3.10321 -3.53692,-3.98068 -0.77999,-0.87744 -1.34927,-1.66428 -1.26507,-1.74846 0.0842,-0.0842 2.50022,-1.45377 5.36893,-3.04348 l 5.21583,-2.89037 1.6667,4.99642 c 0.91666,2.74803 1.66667,5.04179 1.66667,5.09724 0,0.0822 -5.16058,3.01529 -6.6037,3.75327 -0.36245,0.18537 -0.5618,0.0121 -2.51244,-2.18394 z m 17.17845,-8.73968 c -1.02544,-0.8105 -5.39293,-4.17791 -6.95139,-5.35963 -0.20406,-0.15474 0.66296,-0.96998 4.28366,-4.02784 2.49675,-2.10859 4.65648,-3.84379 4.79941,-3.85598 0.27904,-0.0238 5.30936,8.63252 5.23689,9.01178 -0.0225,0.11766 -1.39434,1.35131 -3.04857,2.74143 l -3.00771,2.52751 -1.31229,-1.03727 z m 10.62439,-14.27372 c -2.60518,-1.29686 -4.7673,-2.38716 -4.8047,-2.4229 -0.0374,-0.0357 0.76942,-1.10088 1.79292,-2.36698 1.0235,-1.26611 2.70706,-3.35501 3.74123,-4.64201 1.03417,-1.287 1.9404,-2.40874 2.01386,-2.49277 0.11624,-0.13298 7.00999,7.71573 7.00999,7.98106 0,0.0914 -3.36868,4.34839 -4.5333,5.7287 l -0.4833,0.57282 -4.7367,-2.35792 z m -128.3067,-9.33956 -5.13,-0.83381 -0.11546,-1.06926 c -0.0635,-0.58809 -0.12426,-2.41774 -0.135,-4.06589 l -0.0195,-2.99663 5.175,-1.26186 c 2.84625,-0.69402 5.18773,-1.24904 5.20329,-1.23337 0.0791,0.0797 0.31856,12.21939 0.24171,12.25405 -0.0495,0.0223 -2.3985,-0.33463 -5.22,-0.79323 z m 139.41,-5.2991 c -2.673,-0.91338 -4.84628,-1.73552 -4.82953,-1.82696 0.0167,-0.0915 0.73358,-1.34077 1.59291,-2.77627 0.85936,-1.4355 2.22264,-3.72096 3.02953,-5.07881 0.8069,-1.35785 1.52309,-2.4716 1.59152,-2.475 0.18697,-0.009 7.88557,6.8245 7.88557,6.99976 0,0.33886 -3.99852,6.85271 -4.19629,6.83602 -0.11754,-0.01 -2.40071,-0.76535 -5.07371,-1.67874 z m -135.81,-11.79951 c -0.7425,-0.28258 -2.8485,-1.05225 -4.68,-1.71039 -1.8315,-0.65814 -3.40384,-1.26927 -3.49408,-1.35805 -0.0986,-0.097 0.08,-1.70349 0.44744,-4.02428 l 0.61151,-3.86285 0.72257,-0.0958 c 1.33605,-0.17717 9.81327,-0.53162 9.92971,-0.41518 0.17703,0.17704 -1.80239,12.00181 -2.00715,11.99038 -0.099,-0.006 -0.7875,-0.24124 -1.53,-0.52381 z m 144.09,-4.19134 c -2.574,-0.29766 -4.70081,-0.55777 -4.72626,-0.57804 -0.095,-0.0757 3.83148,-11.59932 3.95476,-11.60667 0.27317,-0.0163 9.04381,5.00929 9.11502,5.22292 0.0415,0.12434 -0.48238,1.87328 -1.16408,3.88653 l -1.23944,3.66045 -0.63,-0.022 c -0.3465,-0.0121 -2.736,-0.26554 -5.31,-0.56319 z m -143.64,-14.9176 c -2.475,-1.39302 -4.53031,-2.56127 -4.56735,-2.59612 -0.0979,-0.0921 2.52447,-7.6378 2.65631,-7.64323 0.0611,-0.003 2.43979,0.25663 5.28604,0.57586 3.57861,0.40138 5.175,0.64699 5.175,0.79617 0,0.11865 -0.8505,2.70855 -1.89,5.75533 -1.0395,3.04678 -1.89,5.56606 -1.89,5.59841 0,0.17157 -0.64325,-0.16373 -4.77,-2.48642 z m 144.35782,-2.71978 c 0.0521,-0.22275 0.50074,-2.91088 0.99706,-5.97362 0.49629,-3.06274 0.93294,-5.5992 0.97032,-5.63657 0.0791,-0.0791 9.66627,3.36817 9.87484,3.5507 0.14607,0.12784 -1.01776,7.69222 -1.21363,7.88809 -0.11927,0.11927 -7.2234,0.54548 -9.41485,0.56484 -1.26738,0.0112 -1.30545,-0.001 -1.21374,-0.39344 z M 298.72512,264.74734 c -3.49451,-3.09653 -3.87966,-3.49283 -3.71118,-3.81867 0.15477,-0.29932 3.71028,-6.34107 3.85251,-6.54643 0.0963,-0.13898 10.14723,3.31107 10.1395,3.48044 -0.013,0.28408 -6.01716,10.2317 -6.21019,10.28893 -0.0943,0.028 -1.9261,-1.50396 -4.07064,-3.40427 z m 139.82229,-5.0254 c -0.058,-1.41727 -0.15404,-4.1766 -0.21341,-6.13185 l -0.10793,-3.555 0.5091,0.005 c 0.60996,0.006 9.92532,1.51892 10.02767,1.62847 0.0393,0.042 0.13005,1.86873 0.20171,4.05934 l 0.1303,3.98292 -5.01528,1.21684 c -2.75841,0.66926 -5.10785,1.25153 -5.22098,1.29393 -0.14535,0.0545 -0.23664,-0.67905 -0.31118,-2.49976 z M 308.96928,249.50247 c -1.85625,-2.17059 -3.375,-4.02856 -3.375,-4.12882 0,-0.10026 1.09986,-1.55693 2.44414,-3.23704 l 2.44414,-3.05474 0.66086,0.30225 c 0.36347,0.16624 2.50527,1.23149 4.75954,2.36721 2.89576,1.45892 4.07084,2.13751 4.00381,2.31217 -0.11269,0.29368 -7.34184,9.36575 -7.47249,9.37745 -0.0495,0.004 -1.60875,-1.76788 -3.465,-3.93848 z m 14.33837,-9.40338 c -0.25777,-0.50173 -3.06628,-5.49523 -4.49979,-8.0006 l -0.42719,-0.74659 3.09395,-2.61344 3.09395,-2.61343 1.89786,1.45848 c 5.37227,4.12855 6.5028,5.03613 6.45262,5.18014 -0.0456,0.13085 -2.37949,2.12266 -8.46049,7.22045 l -0.84573,0.70899 -0.30518,-0.594 z m 13.96663,-10.10024 c 0,-0.0379 -0.729,-2.2223 -1.62,-4.85422 -0.891,-2.63192 -1.62,-4.90251 -1.62,-5.04574 0,-0.15132 1.44492,-1.06542 3.44884,-2.18184 2.82752,-1.57526 3.49055,-1.87913 3.68029,-1.68669 1.28091,1.29909 6.8611,7.82181 6.76584,7.90863 -0.10493,0.0956 -9.0037,5.05728 -10.24997,5.71502 -0.22275,0.11756 -0.405,0.18274 -0.405,0.14484 z m -120.42,-35.21714 0,-30.60662 11.43,0 11.43,0 0,26.96694 c 0,18.74039 -0.06,27.29277 -0.19679,28.035 -0.44776,2.43021 -1.88567,4.34412 -4.07794,5.42789 l -1.37585,0.68017 -8.60471,0.0516 -8.60471,0.0516 0,-30.60662 z m 135.02953,22.35776 c -0.33026,-2.64791 -0.64033,-5.02077 -0.68904,-5.27303 -0.0871,-0.45105 -0.0264,-0.47867 3.66047,-1.66517 2.06197,-0.66358 3.83004,-1.20234 3.92904,-1.19724 0.16088,0.008 5.27538,8.65641 5.36388,9.0698 0.0312,0.14568 -10.99502,3.86793 -11.48388,3.87676 -0.10094,0.002 -0.44374,-2.11132 -0.78047,-4.81112 z m 17.15907,-5.46475 c 0.0711,-2.9093 0.18157,-5.34042 0.24538,-5.40249 0.23244,-0.22612 7.76751,-1.30778 7.91965,-1.13687 0.32169,0.36137 3.8237,9.67343 3.68413,9.79632 -0.0813,0.0716 -2.61826,0.51242 -5.63776,0.9797 -3.0195,0.46729 -5.68142,0.89536 -5.91538,0.95129 l -0.42538,0.10168 0.12936,-5.28963 z m 58.61689,-0.63002 c -1.52048,-2.92743 -2.69498,-5.38659 -2.61,-5.4648 0.151,-0.13897 9.61175,-3.06546 9.90578,-3.06414 0.0818,3.6e-4 0.43102,0.54711 0.77605,1.215 0.34502,0.66788 1.18481,2.26292 1.86618,3.54453 1.19873,2.25473 1.22768,2.33926 0.89417,2.61 -0.18957,0.15389 -2.01189,1.67705 -4.0496,3.3848 -2.03771,1.70775 -3.77538,3.10325 -3.86149,3.1011 -0.0861,-0.002 -1.40061,-2.39906 -2.92109,-5.32649 z m -8.59012,-13.60483 c -1.75779,-2.20813 -3.46617,-4.34754 -3.79644,-4.75425 l -0.60046,-0.73948 4.69786,-2.47935 4.69783,-2.47935 0.41901,0.42883 c 0.73532,0.75253 4.57974,5.64171 4.58336,5.82891 0.004,0.21469 -6.38988,8.07103 -6.63534,8.15285 -0.0934,0.0311 -1.60805,-1.75003 -3.36582,-3.95816 z m -12.34712,-13.3426 c -2.44296,-2.1957 -4.44771,-4.04895 -4.455,-4.11833 -0.0202,-0.19228 8.26135,-6.47597 8.44909,-6.41081 0.16155,0.0561 5.93766,5.18601 5.93766,5.27341 0,0.17645 -5.27089,9.27081 -5.36731,9.26074 -0.0675,-0.007 -2.12148,-1.8093 -4.56444,-4.00501 z m -12.03369,-9.26297 c -1.82851,-1.1625 -4.15215,-2.62974 -5.16365,-3.26051 l -1.8391,-1.14688 0.6691,-0.75511 c 0.368,-0.41531 2.00041,-2.18208 3.62758,-3.92614 l 2.95851,-3.17103 0.65372,0.39523 c 3.20854,1.93982 6.11928,3.84726 6.11928,4.01002 0,0.10919 -0.53316,1.64903 -1.1848,3.42187 -0.65163,1.77284 -1.42864,3.91184 -1.72666,4.75334 -0.29803,0.8415 -0.59755,1.58914 -0.66563,1.66143 -0.0681,0.0723 -1.61982,-0.81971 -3.44835,-1.98222 z m -16.8206,-8.69829 c -2.96782,-1.18965 -5.43406,-2.20102 -5.48054,-2.2475 -0.0465,-0.0465 0.0679,-0.34525 0.25419,-0.66396 0.39061,-0.66829 3.798,-6.06441 4.71023,-7.45937 l 0.61465,-0.93991 0.84875,0.33624 c 2.89171,1.14556 6.44297,2.57674 6.53506,2.63366 0.0596,0.0368 -0.23986,2.15558 -0.66534,4.70841 -1.01951,6.11684 -0.9564,5.81266 -1.20412,5.80347 -0.11926,-0.004 -2.64506,-0.98139 -5.61288,-2.17104 z m -10.71396,-3.71325 c -3.65717,-0.67707 -11.19874,-2.18641 -11.26735,-2.25502 -0.0866,-0.0866 3.38105,-9.14469 3.6957,-9.65381 0.12597,-0.20382 0.67489,-0.1466 3.18692,0.33216 5.08826,0.96977 4.7213,0.85497 4.8196,1.50772 0.15136,1.00516 0.28438,10.20224 0.14718,10.17677 -0.0726,-0.0135 -0.33455,-0.062 -0.58205,-0.10782 z m -28.26,-3.25194 c 0,-0.17834 0.4455,-2.54342 0.99,-5.25573 0.5445,-2.71231 0.99,-4.96879 0.99,-5.01441 0,-0.10772 7.94788,0.12229 8.05881,0.23322 0.0841,0.0841 0.2205,0.71226 1.40932,6.49119 0.34622,1.683 0.67481,3.24225 0.73019,3.465 l 0.10071,0.405 -6.13952,0 c -5.79399,0 -6.13951,-0.0182 -6.13951,-0.32427 z"
       style="fill-opacity:1;fill:#00266d;stroke:none" />
    <path
       style="fill:#00266d;fill-opacity:1;stroke:none;stroke-opacity:1"
       d="M 142.10115,248.57696 C 121.23414,239.466 104.79175,224.39575 95.375618,205.7508 l -2.678287,-5.3033 -28.772331,0 -28.77233,0 0,-12.12183 0,-12.12183 25.506351,-4.3e-4 25.506352,-4.4e-4 0.02975,-14.89931 c 0.0246,-12.31854 0.4196,-16.2621 2.280422,-22.76689 7.217378,-25.22949 23.113686,-45.060821 45.849846,-57.199672 11.20906,-5.984526 22.58348,-9.15504 37.19787,-10.36857 6.9448,-0.576673 12.80475,-1.215216 13.02211,-1.418984 0.21737,-0.203769 -1.55651,-2.900286 -3.94196,-5.992261 -8.3422,-10.813047 -20.78224,-18.724918 -36.00884,-22.901641 -7.34013,-2.013428 -10.40544,-2.178966 -41.76168,-2.255273 -37.482478,-0.09121 -37.813378,-0.04111 -42.13616,6.380487 -2.16578,3.217317 -2.310552,4.43571 -2.310552,19.445436 0,20.461079 -0.288696,20.053667 14.210208,20.053667 9.200629,0 10.122392,0.168434 9.674171,1.767767 -0.272483,0.972271 -1.476852,6.199811 -2.676375,11.616754 l -2.18095,9.84899 -38.917459,0 -38.91745975,0 0.61351666,-2.44445 C 0.52926409,103.72458 1.7556882,98.497038 2.9172169,93.452268 l 2.1118704,-9.172309 10.9736497,0 c 6.035508,0 12.042319,-0.486918 13.348468,-1.082039 4.933272,-2.247749 5.138626,-3.531501 5.612583,-35.086637 0.366665,-24.411763 0.707751,-29.865801 1.945135,-31.103185 1.297392,-1.297393 8.834691,-1.460769 55.683052,-1.206969 l 54.182555,0.293533 9.9628,3.448304 c 22.77727,7.883623 41.98432,23.873032 51.91459,43.217647 l 3.78252,7.368545 29.04189,0.0043 29.04188,0.0043 0,12.12183 0,12.121831 -25.56484,0 -25.56484,0 0.0585,12.879446 c 0.0323,7.12079 -0.55723,15.92814 -1.31858,19.69797 l -1.37707,6.81853 -13.0176,0 c -7.15968,0 -13.01761,-0.1294 -13.01761,-0.28755 0,-0.15815 0.9693,-2.9992 2.154,-6.31345 2.33312,-6.52699 3.68639,-22.71331 2.44998,-29.303909 l -0.70763,-3.77204 -13.31239,0.56949 c -25.12248,1.074716 -41.76433,8.233579 -54.34996,23.379849 -6.57597,7.91391 -14.13098,22.3333 -16.17945,30.8799 -1.41888,5.91986 -1.66318,24.15809 -0.352,26.27963 1.24865,2.02035 25.47203,0.64582 34.57526,-1.96196 4.02095,-1.15187 7.54386,-2.09431 7.82868,-2.09431 0.28483,0 0.51787,5.66074 0.51787,12.57943 l 0,12.57942 -3.78807,1.09853 c -2.08344,0.6042 -9.56246,1.60379 -16.62003,2.22131 l -12.83196,1.12278 3.23551,4.52425 c 5.01781,7.01647 14.19769,14.76269 22.47212,18.96258 l 7.53243,3.82327 0,11.95031 c 0,14.03807 0.47457,13.67655 -11.23937,8.562 z"
       id="path3502"
       inkscape:connector-curvature="0"
       transform="translate(213.10239,149.03657)" />
    <path
       style="fill:#00266d;fill-opacity:1;stroke:none"
       d="m 188.69586,254.91293 c -16.38973,-0.32333 -31.10431,-1.02214 -32.69908,-1.5529 l -2.89958,-0.96502 0.17841,-12.05673 c 0.0981,-6.63121 0.26652,-12.13584 0.3742,-12.23252 0.10768,-0.0967 3.60505,0.75699 7.77193,1.89704 6.89815,1.88731 10.60451,2.08139 41.41625,2.16866 30.05349,0.0851 34.19069,-0.0962 36.9731,-1.62029 6.21238,-3.40291 6.93243,-5.6927 7.30907,-23.24306 0.34018,-15.85134 0.33787,-15.87049 -2.22693,-18.43528 -2.39121,-2.39122 -3.22936,-2.56746 -12.20982,-2.56746 -7.05581,0 -9.63465,-0.33872 -9.61359,-1.2627 0.0435,-1.90814 4.67854,-20.95393 5.23479,-21.51018 0.26671,-0.26671 17.74922,-0.36583 38.85002,-0.22025 l 38.36509,0.26469 -2.60101,11.36418 -2.601,11.36418 -10.79338,4e-5 c -19.5479,7e-5 -19.00612,-1.03194 -19.00612,36.20345 0,25.39725 -0.17697,28.43484 -1.76776,30.34332 -1.69352,2.03171 -2.78607,2.13187 -26.01143,2.38475 -13.33402,0.14518 -37.65344,-5.8e-4 -54.04316,-0.32392 z"
       id="path3504"
       inkscape:connector-curvature="0"
       transform="translate(213.10239,149.03657)" />
    <path
       style="fill:#00266d;fill-opacity:1;stroke:none"
       d="m 153.34485,183.59552 0.004,-12.94752 7.65617,-3.93059 c 4.39039,-2.25398 9.8408,-6.13195 12.77773,-9.09137 5.08043,-5.11933 14.23202,-18.09208 15.4335,-21.8776 0.57823,-1.82183 1.62259,-1.97101 13.79899,-1.97101 l 13.17342,0 -0.66244,2.77792 c -1.10001,4.6128 -7.21268,16.90666 -11.77355,23.67908 -10.59508,15.73258 -30.19727,30.23938 -48.13964,35.62623 l -2.27284,0.68237 0.004,-12.94751 z"
       id="path3506"
       inkscape:connector-curvature="0"
       transform="translate(213.10239,149.03657)" />
    <path
       style="fill:#00266d;fill-opacity:1;stroke:none"
       d="m 279.30501,255.3646 c -0.38807,-0.38807 -0.70558,-13.06915 -0.70558,-28.18019 0,-34.31043 -0.63299,-32.79782 13.72519,-32.79782 l 9.53795,0 -0.26735,30.55711 -0.26735,30.55712 -10.65864,0.28467 c -5.86226,0.15658 -10.97615,-0.0328 -11.36422,-0.42089 z"
       id="path3508"
       inkscape:connector-curvature="0"
       transform="translate(213.10239,149.03657)" />
    <path
       style="fill:#00266d;fill-opacity:1;stroke:none"
       d="m 278.59943,325.20134 0,-34.85026 11.61676,0 11.61675,0 0,34.85026 0,34.85026 -11.61675,0 -11.61676,0 0,-34.85026 z"
       id="path3510"
       inkscape:connector-curvature="0"
       transform="translate(213.10239,149.03657)" />
    <path
       style="fill:#00266d;fill-opacity:1;stroke:none"
       d="m 230.11211,333.28256 0,-26.76904 -10.72299,0 -10.723,0 0.69634,-5.80838 c 0.38299,-3.19461 0.93922,-6.83116 1.23606,-8.08122 l 0.53971,-2.27284 29.77025,0 29.77026,0 -0.53188,2.77792 c -0.29254,1.52785 -0.82588,5.1644 -1.18521,8.08122 l -0.65332,5.3033 -9.50166,0 -9.50166,0 0,26.76904 0,26.76904 -9.59645,0 -9.59645,0 0,-26.76904 z"
       id="path3512"
       inkscape:connector-curvature="0"
       transform="translate(213.10239,149.03657)" />
    <path
       style="fill:#00266d;fill-opacity:1;stroke:none"
       d="m 152.33036,325.20134 0,-34.85026 23.79976,0 23.79975,0 -0.70879,7.3236 c -0.38983,4.02799 -1.21285,7.65758 -1.82893,8.06576 -0.61608,0.40818 -6.68862,0.7491 -13.49452,0.75761 l -12.37437,0.0155 0,4.54569 0,4.54568 12.76421,0 12.76421,0 -0.64238,4.68668 c -0.3533,2.57767 -0.64238,6.21422 -0.64238,8.08122 l 0,3.39454 -12.12183,0 -12.12183,0 0,6.06092 0,6.06091 14.02432,0 c 16.07999,0 15.23036,-0.57662 15.25631,10.35407 l 0.0138,5.80837 -24.24366,0 -24.24367,0 0,-34.85026 z"
       id="path3514"
       inkscape:connector-curvature="0"
       transform="translate(213.10239,149.03657)" />
    <path
       style="fill:#00266d;fill-opacity:1;stroke:none"
       d="m 97.583341,359.71897 c -9.934429,-2.8227 -17.594704,-10.37089 -20.519298,-20.21907 -1.964055,-6.61369 -1.933816,-21.82078 0.05864,-29.49115 3.971865,-15.29051 13.251836,-20.64082 35.811734,-20.64705 16.18003,-0.004 22.39648,0.82224 21.81041,2.90052 -0.25194,0.89342 -0.95416,4.13212 -1.56049,7.19712 l -1.10242,5.57273 -14.03963,-0.0169 c -12.64914,-0.0152 -14.32265,0.19134 -16.89736,2.08561 -4.118706,3.03023 -6.476641,10.41076 -6.105494,19.1107 0.556423,13.04297 5.419544,18.67709 16.127214,18.68405 l 5.80838,0.004 0,-10.60661 0,-10.6066 10.10152,0 10.10153,0 0,17.06466 0,17.06466 -6.31346,1.16356 c -10.24343,1.88784 -27.86268,2.27959 -33.281279,0.73998 z"
       id="path3516"
       inkscape:connector-curvature="0"
       transform="translate(213.10239,149.03657)" />
    <path
       style="fill:#00266d;fill-opacity:1;stroke:none"
       d="m 2.8277882,325.23053 0,-35.05023 21.9708178,0.36399 c 18.317958,0.30348 22.642608,0.66248 26.011428,2.15928 9.847683,4.37544 13.034455,11.57616 13.041136,29.46731 0.0052,14.05889 -2.244073,20.50612 -9.889482,28.34621 -7.268181,7.45327 -11.671748,8.6654 -33.708768,9.27871 l -17.4251318,0.48496 0,-35.05023 z m 33.0417498,16.67418 c 6.358295,-3.87686 9.603127,-15.01062 7.428117,-25.48759 -1.671892,-8.05346 -4.035257,-9.90137 -13.58716,-10.62378 l -7.689808,-0.58158 0,19.3387 0,19.3387 5.3033,-0.004 c 3.481098,-0.003 6.417331,-0.68304 8.545551,-1.98068 l 0,-4e-5 z"
       id="path3518"
       inkscape:connector-curvature="0"
       transform="translate(213.10239,149.03657)" />
    <path
       style="fill:#00266d;fill-opacity:1;stroke:none"
       d="m 3.8379408,45.356002 0,-30.842736 11.3642162,0.285621 11.364216,0.285622 0.312726,20.203051 c 0.172,11.111678 0.01384,23.997757 -0.351458,28.63573 -0.908962,11.540433 -1.723187,12.275448 -13.598327,12.275448 l -9.0913732,0 0,-30.842736 z"
       id="path3520"
       inkscape:connector-curvature="0"
       transform="translate(213.10239,149.03657)" />
  </g>
</svg>
